<svg xmlns="http://www.w3.org/2000/svg" viewBox="0 0 512.003 512.003" width="512" height="512"><g fill="#d7263d"><path d="M396.757 244.366c-16.956 9.907-37.965 20.565-65.186 24.525a8.52 8.52 0 0 0-7.305 8.439v55.27c0 36.949 19.234 75.938 49.007 99.345 9.079 7.134 16.572 11.861 24.311 15.326a8.51 8.51 0 0 0 3.482.742 8.485 8.485 0 0 0 3.208-.623c10.078-4.087 19.439-9.429 27.093-15.454 28.681-22.536 46.498-60.604 46.498-99.336v-55.27a8.518 8.518 0 0 0-7.305-8.439c-27.221-3.959-48.23-14.618-65.186-24.525a8.551 8.551 0 0 0-8.617 0zM460.8 284.55v48.051c0 33.613-15.317 66.543-39.987 85.922-5.461 4.301-12.305 8.354-19.55 11.597-5.342-2.739-10.863-6.409-17.442-11.588-25.813-20.292-42.487-54.025-42.487-85.931V284.55c24.329-4.625 43.682-13.875 59.733-22.963 16.051 9.087 35.404 18.338 59.733 22.963z"/><path d="M372.966 339.567a8.523 8.523 0 0 0-12.066 0 8.525 8.525 0 0 0 0 12.066l25.6 25.6a8.503 8.503 0 0 0 6.033 2.5c.23 0 .469-.009.7-.026a8.52 8.52 0 0 0 6.238-3.55l42.667-59.733c2.748-3.831 1.852-9.165-1.98-11.896-3.823-2.748-9.156-1.852-11.895 1.98l-36.821 51.533-18.476-18.474z"/><path d="M512 243.323v-.827a8.489 8.489 0 0 0-1.127-4.232c-10.672-33.219-40.987-61.099-75.878-70.208-4.514-76.8-67.823-138.189-144.145-138.189-46.336 0-91.204 22.724-118.997 59.802a77.314 77.314 0 0 0-5.218-2.451l-.424-.181a77.1 77.1 0 0 0-3.09-1.221c-.201-.074-.404-.144-.605-.217a76.78 76.78 0 0 0-2.788-.945c-.172-.055-.342-.114-.515-.167a76.79 76.79 0 0 0-3.017-.859 75.152 75.152 0 0 0-3.918-.932c-.275-.058-.553-.109-.829-.163a77.898 77.898 0 0 0-2.803-.502c-.192-.031-.382-.066-.574-.095a78.075 78.075 0 0 0-3.248-.414c-.265-.029-.529-.058-.794-.083a77.136 77.136 0 0 0-3.302-.252c-.214-.012-.428-.019-.642-.029a77.703 77.703 0 0 0-3.551-.09c-42.351 0-76.8 34.449-76.8 76.8 0 1.101.068 2.176.145 3.251C24.38 180.463 0 221.004 0 261.58c0 55.637 34.475 100.651 83.831 109.483.495.094.998.137 1.502.137h210.001c8.905 32.923 28.885 63.316 57.093 85.483 10.829 8.516 25.873 19.063 46.216 25.105.794.23 1.604.35 2.424.35.819 0 1.63-.12 2.423-.35 17.903-5.325 35.379-14.225 49.212-25.105C489.83 427.498 512 381.12 512 332.599v-89.193-.083zM86.11 354.133c-40.695-7.663-69.043-45.611-69.043-92.553 0-35.448 23.083-72.243 54.895-87.492a8.527 8.527 0 0 0 4.838-7.689c0-1.024.068-2.065.128-3.115l.06-1.101a8.549 8.549 0 0 0-.009-.947l-.068-1.186c-.051-.725-.111-1.451-.111-2.185 0-32.93 26.803-59.733 59.733-59.733.918 0 1.83.028 2.739.07.262.012.523.028.785.043.704.041 1.405.095 2.103.16.225.021.45.038.674.062.888.094 1.77.205 2.646.337.184.028.366.062.549.091a57.864 57.864 0 0 1 2.883.535c.763.162 1.522.336 2.274.526.108.027.217.051.325.079.887.23 1.766.481 2.636.751.136.042.27.088.406.131a58.639 58.639 0 0 1 2.691.924 59.433 59.433 0 0 1 5.25 2.238c.793.384 1.575.786 2.348 1.204l.243.131c18.56 10.146 31.181 29.855 31.181 52.451 0 4.719 3.814 8.533 8.533 8.533s8.533-3.814 8.533-8.533c0-23.5-10.617-44.554-27.295-58.653 24.463-31.986 64.743-52.28 104.812-52.28 66.099 0 121.136 52.338 126.839 118.518-8.717-.618-21.861-.938-34.969 1.051a8.524 8.524 0 0 0-7.151 9.711 8.523 8.523 0 0 0 8.422 7.253c.427 0 .862-.034 1.289-.102 18.725-2.82 38.336-.239 40.038-.009 28.054 5.36 53.338 25.205 65.335 50.188-56.072-3.607-83.016-29.969-83.485-30.446a8.557 8.557 0 0 0-6.101-2.56h-.043a8.54 8.54 0 0 0-6.144 2.645c-.299.316-30.694 31.488-96.213 31.488a8.525 8.525 0 0 0-8.533 8.533v89.395c0 7.212.553 14.408 1.62 21.534H86.11zm408.823-21.534c0 43.324-19.738 84.693-52.787 110.669-11.546 9.079-26.052 16.623-41.071 21.402-12.902-4.164-24.439-10.667-38.101-21.402-34.927-27.443-55.774-68.813-55.774-110.669v-81.033c51.115-1.98 81.715-21.461 93.926-31.189 12.254 9.54 42.82 28.544 93.807 30.49v81.732z"/></g></svg>