<svg xmlns="http://www.w3.org/2000/svg" viewBox="0 0 470 470" width="512" height="512"><g fill="#d7263d"><path d="M202.5 405.883V285.675c0-4.143-3.357-7.5-7.5-7.5h-50c-4.143 0-7.5 3.357-7.5 7.5s3.357 7.5 7.5 7.5h42.5v112.708c-14.315 3.396-25 16.278-25 31.617 0 17.921 14.579 32.5 32.5 32.5s32.5-14.579 32.5-32.5c0-15.339-10.685-28.221-25-31.617zM195 455c-9.649 0-17.5-7.851-17.5-17.5S185.351 420 195 420s17.5 7.851 17.5 17.5S204.649 455 195 455zM282.5 405.883V285.675c0-4.143-3.357-7.5-7.5-7.5h-49.999c-4.143 0-7.5 3.357-7.5 7.5s3.357 7.5 7.5 7.5H267.5v112.708c-14.315 3.396-25 16.278-25 31.617 0 17.921 14.579 32.5 32.5 32.5s32.5-14.579 32.5-32.5c0-15.339-10.685-28.221-25-31.617zM275 455c-9.649 0-17.5-7.851-17.5-17.5S265.351 420 275 420s17.5 7.851 17.5 17.5S284.649 455 275 455zM410 355c-15.339 0-28.221 10.685-31.617 25H362.5v-94.325c0-4.143-3.357-7.5-7.5-7.5h-50c-4.143 0-7.5 3.357-7.5 7.5s3.357 7.5 7.5 7.5h42.5V387.5c0 4.143 3.357 7.5 7.5 7.5h23.383c3.396 14.315 16.278 25 31.617 25 17.921 0 32.5-14.579 32.5-32.5S427.921 355 410 355zm0 50c-9.649 0-17.5-7.851-17.5-17.5S400.351 370 410 370s17.5 7.851 17.5 17.5S419.649 405 410 405z"/><path d="M452.141 161.557c-10.108-12.55-23.837-21.848-39.113-26.592-1.72-35.503-16.45-68.628-41.84-93.806C344.422 14.617 308.922 0 271.226 0 221.725 0 175.92 25.812 150.16 67.787a64.41 64.41 0 0 0-19.434-2.972c-30.637 0-56.983 21.626-63.336 51.105C28.044 126.127 0 161.988 0 203.101c0 49.667 40.406 90.074 90.073 90.074H107.5V380H91.617C88.221 365.685 75.339 355 60 355c-17.921 0-32.5 14.579-32.5 32.5S42.079 420 60 420c15.339 0 28.221-10.685 31.617-25H115c4.143 0 7.5-3.357 7.5-7.5V285.675c0-4.143-3.357-7.5-7.5-7.5H90.073C48.678 278.175 15 244.497 15 203.101c0-35.723 25.395-66.688 60.383-73.627a7.498 7.498 0 0 0 5.978-6.383c3.229-24.671 24.451-43.275 49.365-43.275a49.451 49.451 0 0 1 19.756 4.08 7.5 7.5 0 0 0 9.543-3.254C182.409 40.152 225.019 15 271.226 15c69.384 0 126.34 56.438 126.966 125.812a7.499 7.499 0 0 0 5.809 7.239c30.028 6.949 51 33.351 51 64.203 0 36.349-29.571 65.921-65.92 65.921H385c-4.143 0-7.5 3.357-7.5 7.5s3.357 7.5 7.5 7.5h4.08c44.619 0 80.92-36.301 80.92-80.921 0-18.395-6.343-36.4-17.859-50.697zM60 405c-9.649 0-17.5-7.851-17.5-17.5S50.351 370 60 370s17.5 7.851 17.5 17.5S69.649 405 60 405z"/><path d="M365.692 148.605h.069a7.501 7.501 0 0 0 7.432-7.568 100.92 100.92 0 0 0-6.931-35.931 7.501 7.501 0 0 0-13.973 5.457 85.954 85.954 0 0 1 5.903 30.61 7.501 7.501 0 0 0 7.5 7.432zM338.278 86.756a7.482 7.482 0 0 0 5.786 2.724 7.5 7.5 0 0 0 5.778-12.277C330.312 53.56 301.657 40 271.227 40c-4.143 0-7.5 3.357-7.5 7.5s3.357 7.5 7.5 7.5c25.94 0 50.379 11.574 67.051 31.756z"/></g></svg>