<svg xmlns="http://www.w3.org/2000/svg" viewBox="0 0 512 512" width="512" height="512"><circle cx="256.294" cy="311.734" r="62.981" fill="#d7263d"/><circle cx="369.191" cy="98.858" r="18.541" fill="#d7263d"/><circle cx="433.55" cy="98.858" r="18.541" fill="#d7263d"/><path d="M495.64 24.605H16.36C7.324 24.605 0 31.93 0 40.965v430.07c0 9.035 7.324 16.36 16.36 16.36h479.28c9.035 0 16.36-7.324 16.36-16.36V40.965c0-9.035-7.324-16.36-16.36-16.36zM384.207 333.537c0 7.086-5.745 12.829-12.829 12.829h-14.696a103.967 103.967 0 0 1-5.952 14.36l10.395 10.394c5.011 5.011 5.011 13.133 0 18.144l-28.129 28.13c-5.011 5.011-13.134 5.011-18.144 0L304.458 407a103.916 103.916 0 0 1-14.36 5.952v14.695c0 7.086-5.745 12.829-12.829 12.829h-39.782c-7.086 0-12.829-5.743-12.829-12.829V412.95a103.954 103.954 0 0 1-14.359-5.952l-10.394 10.394c-5.011 5.011-13.133 5.011-18.144 0l-28.13-28.13c-5.011-5.011-5.011-13.134 0-18.144l10.394-10.394a103.954 103.954 0 0 1-5.952-14.359h-14.696c-7.086 0-12.829-5.744-12.829-12.829v-39.782c0-7.086 5.743-12.829 12.829-12.829h14.696a104.005 104.005 0 0 1 5.952-14.359l-10.394-10.394c-5.011-5.011-5.011-13.134 0-18.144l28.13-28.13c5.011-5.011 13.134-5.011 18.144 0l10.394 10.394a103.954 103.954 0 0 1 14.359-5.952v-14.696c0-7.086 5.743-12.829 12.829-12.829h39.782c7.086 0 12.829 5.745 12.829 12.829v14.695a103.967 103.967 0 0 1 14.36 5.952l10.394-10.394c5.011-5.011 13.134-5.011 18.144 0l28.129 28.13c5.011 5.011 5.01 13.133 0 18.144l-10.395 10.394a103.916 103.916 0 0 1 5.952 14.36h14.696c7.086 0 12.829 5.745 12.829 12.829v39.783zm95.073-194.083H32.721v-82.13h446.56v82.13z" fill="#d7263d"/></svg>